<svg width="36" height="36" viewBox="0 0 36 36" fill="none" xmlns="http://www.w3.org/2000/svg">
<path fill-rule="evenodd" clip-rule="evenodd" d="M17.9165 0.118408C8.25152 0.118408 0.416504 7.95342 0.416504 17.6184C0.416504 27.2834 8.25152 35.1184 17.9165 35.1184C27.5815 35.1184 35.4165 27.2834 35.4165 17.6184C35.4165 7.95342 27.5815 0.118408 17.9165 0.118408ZM19.3416 23.1427C19.169 23.3246 18.8321 23.3614 18.8321 23.3614H17.7164C17.7164 23.3614 15.255 23.5066 13.0867 21.2912C10.722 18.8742 8.63404 14.0787 8.63404 14.0787C8.63404 14.0787 8.51352 13.7641 8.64408 13.6127C8.79107 13.4415 9.19187 13.4308 9.19187 13.4308L11.8587 13.4137C11.8587 13.4137 12.1098 13.4541 12.2896 13.584C12.4385 13.6915 12.5215 13.8914 12.5215 13.8914C12.5215 13.8914 12.9525 14.9614 13.5231 15.9293C14.6378 17.8194 15.1564 18.2325 15.5344 18.03C16.0858 17.7351 15.9206 15.3584 15.9206 15.3584C15.9206 15.3584 15.9306 14.4963 15.643 14.1119C15.4203 13.8143 15.0003 13.7274 14.815 13.7032C14.6643 13.6835 14.9108 13.3411 15.2304 13.1879C15.7106 12.9576 16.5579 12.9441 17.5594 12.954C18.34 12.962 18.5646 13.0095 18.8695 13.0821C19.5773 13.2498 19.5552 13.787 19.5075 14.9465C19.4932 15.2933 19.4767 15.6957 19.4767 16.1605C19.4767 16.265 19.4736 16.3763 19.4704 16.4909C19.4538 17.0849 19.4349 17.7651 19.8337 18.0183C20.0382 18.1474 20.5376 18.0371 21.7874 15.9544C22.38 14.9668 22.8237 13.8063 22.8237 13.8063C22.8237 13.8063 22.9214 13.5992 23.072 13.5105C23.2263 13.42 23.4345 13.4478 23.4345 13.4478L26.241 13.4308C26.241 13.4308 27.0846 13.3313 27.2206 13.7059C27.364 14.0975 26.9057 15.0134 25.7589 16.5136C24.6712 17.9371 24.1418 18.4612 24.1904 18.9247C24.2259 19.2634 24.57 19.5697 25.2303 20.171C26.6087 21.4272 26.9782 22.0881 27.067 22.2469C27.0743 22.2601 27.0798 22.2698 27.0837 22.2761C27.7018 23.2825 26.398 23.3614 26.398 23.3614L23.9047 23.3954C23.9047 23.3954 23.3697 23.4994 22.6648 23.0244C22.2956 22.7758 21.9348 22.3698 21.5912 21.9831C21.0664 21.3925 20.5816 20.8468 20.1678 20.9757C19.473 21.1926 19.494 22.6615 19.494 22.6615C19.494 22.6615 19.4995 22.976 19.3416 23.1427Z" fill="#13AFBB"/>
</svg>
